<svg xmlns="http://www.w3.org/2000/svg" viewBox="0 0 160 96" role="img"><title>Ilustrasi layanan sertifikasi ISO onsite di Lebak, Banten</title><rect width="160" height="96" rx="8" fill="#141519" stroke="rgba(255,255,255,0.08)"/><circle cx="80" cy="50" r="1.5" fill="#f59e0b" opacity="0.3"/><circle cx="10" cy="70" r="1.5" fill="#f59e0b" opacity="0.3"/><circle cx="80" cy="40" r="1.5" fill="#f59e0b" opacity="0.3"/><rect x="80" y="31" width="32" height="24" rx="3" fill="none" stroke="#f59e0b" stroke-width="4"/><path d="M90 43h12M96 37v12" stroke="#f59e0b" stroke-width="3" stroke-linecap="round"/><circle cx="98" cy="48" r="2" fill="#f59e0b" opacity="0.5"/><circle cx="89" cy="64" r="2" fill="#f59e0b" opacity="0.5"/><circle cx="71" cy="64" r="2" fill="#f59e0b" opacity="0.5"/><circle cx="62" cy="48" r="2" fill="#f59e0b" opacity="0.5"/><circle cx="71" cy="32" r="2" fill="#f59e0b" opacity="0.5"/><circle cx="89" cy="32" r="2" fill="#f59e0b" opacity="0.5"/><path d="M8 72h27m13 0h27 M8 76h42m-2 0h42 M8 80h57m-17 0h57 " stroke="#f59e0b" stroke-width="4" stroke-linecap="round"/><text x="80" y="90" font-family="monospace" font-size="7" fill="#8a8f98" text-anchor="middle">Lebak · Banten</text></svg>
