<svg xmlns="http://www.w3.org/2000/svg" viewBox="0 0 160 96" role="img"><title>Ilustrasi layanan sertifikasi ISO onsite di Jakarta Utara, Jakarta &amp; Sekitarnya</title><rect width="160" height="96" rx="8" fill="#141519" stroke="rgba(255,255,255,0.08)"/><circle cx="17" cy="69" r="1.5" fill="#3b82f6" opacity="0.3"/><circle cx="66" cy="68" r="1.5" fill="#3b82f6" opacity="0.3"/><circle cx="115" cy="67" r="1.5" fill="#3b82f6" opacity="0.3"/><rect x="63" y="11" width="32" height="24" rx="3" fill="none" stroke="#3b82f6" stroke-width="4"/><path d="M73 23h12M79 17v12" stroke="#3b82f6" stroke-width="3" stroke-linecap="round"/><circle cx="98" cy="48" r="2" fill="#3b82f6" opacity="0.5"/><circle cx="95" cy="59" r="2" fill="#3b82f6" opacity="0.5"/><circle cx="86" cy="65" r="2" fill="#3b82f6" opacity="0.5"/><circle cx="74" cy="65" r="2" fill="#3b82f6" opacity="0.5"/><circle cx="65" cy="59" r="2" fill="#3b82f6" opacity="0.5"/><circle cx="62" cy="48" r="2" fill="#3b82f6" opacity="0.5"/><circle cx="65" cy="37" r="2" fill="#3b82f6" opacity="0.5"/><circle cx="74" cy="31" r="2" fill="#3b82f6" opacity="0.5"/><circle cx="86" cy="31" r="2" fill="#3b82f6" opacity="0.5"/><circle cx="95" cy="37" r="2" fill="#3b82f6" opacity="0.5"/><path d="M71 72h61m-21 0h61 M50 76h55m-15 0h55 M29 80h49m-9 0h49 " stroke="#3b82f6" stroke-width="4" stroke-linecap="round"/><text x="80" y="90" font-family="monospace" font-size="7" fill="#8a8f98" text-anchor="middle">Jakarta Utara · Jakarta &amp; Sekitarnya</text></svg>
