<svg xmlns="http://www.w3.org/2000/svg" viewBox="0 0 160 96" role="img"><title>Ilustrasi layanan sertifikasi ISO onsite di Cirebon, Jawa Barat</title><rect width="160" height="96" rx="8" fill="#141519" stroke="rgba(255,255,255,0.08)"/><circle cx="21" cy="47" r="1.5" fill="#8b5cf6" opacity="0.3"/><circle cx="118" cy="44" r="1.5" fill="#8b5cf6" opacity="0.3"/><circle cx="75" cy="41" r="1.5" fill="#8b5cf6" opacity="0.3"/><rect x="102" y="30" width="32" height="24" rx="3" fill="none" stroke="#8b5cf6" stroke-width="4"/><path d="M112 42h12M118 36v12" stroke="#8b5cf6" stroke-width="3" stroke-linecap="round"/><circle cx="98" cy="48" r="2" fill="#8b5cf6" opacity="0.5"/><circle cx="93" cy="61" r="2" fill="#8b5cf6" opacity="0.5"/><circle cx="80" cy="66" r="2" fill="#8b5cf6" opacity="0.5"/><circle cx="67" cy="61" r="2" fill="#8b5cf6" opacity="0.5"/><circle cx="62" cy="48" r="2" fill="#8b5cf6" opacity="0.5"/><circle cx="67" cy="35" r="2" fill="#8b5cf6" opacity="0.5"/><circle cx="80" cy="30" r="2" fill="#8b5cf6" opacity="0.5"/><circle cx="93" cy="35" r="2" fill="#8b5cf6" opacity="0.5"/><path d="M57 72h54m-14 0h54 M14 76h41m-1 0h41 M41 80h28m12 0h28 " stroke="#8b5cf6" stroke-width="4" stroke-linecap="round"/><text x="80" y="90" font-family="monospace" font-size="7" fill="#8a8f98" text-anchor="middle">Cirebon · Jawa Barat</text></svg>
