<svg xmlns="http://www.w3.org/2000/svg" viewBox="0 0 160 96" role="img"><title>Ilustrasi layanan sertifikasi ISO onsite di Garut, Jawa Barat</title><rect width="160" height="96" rx="8" fill="#141519" stroke="rgba(255,255,255,0.08)"/><circle cx="148" cy="36" r="1.5" fill="#8b5cf6" opacity="0.3"/><circle cx="54" cy="32" r="1.5" fill="#8b5cf6" opacity="0.3"/><circle cx="100" cy="78" r="1.5" fill="#8b5cf6" opacity="0.3"/><rect x="61" y="9" width="32" height="24" rx="3" fill="none" stroke="#8b5cf6" stroke-width="4"/><path d="M71 21h12M77 15v12" stroke="#8b5cf6" stroke-width="3" stroke-linecap="round"/><circle cx="98" cy="48" r="2" fill="#8b5cf6" opacity="0.5"/><circle cx="91" cy="62" r="2" fill="#8b5cf6" opacity="0.5"/><circle cx="76" cy="66" r="2" fill="#8b5cf6" opacity="0.5"/><circle cx="64" cy="56" r="2" fill="#8b5cf6" opacity="0.5"/><circle cx="64" cy="40" r="2" fill="#8b5cf6" opacity="0.5"/><circle cx="76" cy="30" r="2" fill="#8b5cf6" opacity="0.5"/><circle cx="91" cy="34" r="2" fill="#8b5cf6" opacity="0.5"/><path d="M50 72h58m-18 0h58 M26 76h49m-9 0h49 M72 80h40m0 0h40 " stroke="#8b5cf6" stroke-width="4" stroke-linecap="round"/><text x="80" y="90" font-family="monospace" font-size="7" fill="#8a8f98" text-anchor="middle">Garut · Jawa Barat</text></svg>
