<svg xmlns="http://www.w3.org/2000/svg" viewBox="0 0 160 96" role="img"><title>Ilustrasi layanan sertifikasi ISO onsite di Purwakarta, Jawa Barat</title><rect width="160" height="96" rx="8" fill="#141519" stroke="rgba(255,255,255,0.08)"/><circle cx="70" cy="50" r="1.5" fill="#8b5cf6" opacity="0.3"/><circle cx="90" cy="70" r="1.5" fill="#8b5cf6" opacity="0.3"/><circle cx="110" cy="40" r="1.5" fill="#8b5cf6" opacity="0.3"/><circle cx="130" cy="60" r="1.5" fill="#8b5cf6" opacity="0.3"/><rect x="40" y="18" width="32" height="24" rx="3" fill="none" stroke="#8b5cf6" stroke-width="4"/><path d="M50 30h12M56 24v12" stroke="#8b5cf6" stroke-width="3" stroke-linecap="round"/><circle cx="98" cy="48" r="2" fill="#8b5cf6" opacity="0.5"/><circle cx="89" cy="64" r="2" fill="#8b5cf6" opacity="0.5"/><circle cx="71" cy="64" r="2" fill="#8b5cf6" opacity="0.5"/><circle cx="62" cy="48" r="2" fill="#8b5cf6" opacity="0.5"/><circle cx="71" cy="32" r="2" fill="#8b5cf6" opacity="0.5"/><circle cx="89" cy="32" r="2" fill="#8b5cf6" opacity="0.5"/><path d="M8 72h32m8 0h32 M28 76h52m-12 0h52 M48 80h17m23 0h17 M68 84h37m3 0h37 " stroke="#8b5cf6" stroke-width="4" stroke-linecap="round"/><text x="80" y="90" font-family="monospace" font-size="7" fill="#8a8f98" text-anchor="middle">Purwakarta · Jawa Barat</text></svg>
