<svg xmlns="http://www.w3.org/2000/svg" viewBox="0 0 160 96" role="img"><title>Ilustrasi layanan SMK3 onsite di Boyolali, Jawa Tengah</title><rect width="160" height="96" rx="8" fill="#141519" stroke="rgba(255,255,255,0.08)"/><circle cx="15" cy="75" r="1.5" fill="#10b981" opacity="0.3"/><circle cx="110" cy="70" r="1.5" fill="#10b981" opacity="0.3"/><circle cx="65" cy="65" r="1.5" fill="#10b981" opacity="0.3"/><circle cx="20" cy="60" r="1.5" fill="#10b981" opacity="0.3"/><path d="M121 5c-18 0-32 14-32 32 0 22 32 40 32 40s32-18 32-40c0-18-14-32-32-32Z" fill="none" stroke="#10b981" stroke-width="6"/><circle cx="121" cy="29" r="10" fill="none" stroke="#10b981" stroke-width="5"/><path d="M43 72h52m-12 0h52 M68 76h37m3 0h37 M23 80h22m18 0h22 M48 84h62m-22 0h62 " stroke="#10b981" stroke-width="5" stroke-linecap="round"/><text x="80" y="90" font-family="monospace" font-size="7" fill="#8a8f98" text-anchor="middle">Boyolali · Jawa Tengah</text></svg>
