<svg xmlns="http://www.w3.org/2000/svg" viewBox="0 0 350 260" fill="none"><rect width="350" height="260" fill="#f0f4f8"/><rect x="10" y="80" width="80" height="50" rx="6" fill="#2563eb"/><text x="50" y="100" text-anchor="middle" font-family="system-ui" font-size="10" fill="white" font-weight="bold">Input</text><text x="50" y="118" text-anchor="middle" font-family="system-ui" font-size="8" fill="white">Bahan Baku</text><g stroke="#2563eb" stroke-width="2" fill="none"><path d="M90 70 Q120 40 150 70"/><path d="M90 70 Q120 100 150 70"/></g><rect x="100" y="80" width="80" height="50" rx="6" fill="#059669"/><text x="140" y="100" text-anchor="middle" font-family="system-ui" font-size="10" fill="white" font-weight="bold">Proses</text><text x="140" y="118" text-anchor="middle" font-family="system-ui" font-size="8" fill="white">Transformasi</text><g stroke="#059669" stroke-width="2" fill="none"><path d="M190 70 Q220 40 250 70"/><path d="M190 70 Q220 100 250 70"/></g><rect x="200" y="80" width="80" height="50" rx="6" fill="#dc2626"/><text x="240" y="100" text-anchor="middle" font-family="system-ui" font-size="10" fill="white" font-weight="bold">Output</text><text x="240" y="118" text-anchor="middle" font-family="system-ui" font-size="8" fill="white">Produk</text><rect x="30" y="150" width="290" height="45" rx="6" fill="#fef3c7"/><rect x="30" y="150" width="290" height="45" rx="6" stroke="#ca8a04" stroke-width="2" fill="none"/><text x="175" y="170" text-anchor="middle" font-family="system-ui" font-size="10" fill="#ca8a04" font-weight="bold">Risk-Based Thinking</text><text x="175" y="185" text-anchor="middle" font-family="system-ui" font-size="8" fill="#64748b">Identifikasi Mitigasi Risiko</text></svg>