<svg xmlns="http://www.w3.org/2000/svg" viewBox="0 0 640 360" role="img" aria-labelledby="title desc">
  <title id="title">Pendampingan ISO 45001:2018</title>
  <desc id="desc">Ilustrasi siklus PDCA untuk sistem manajemen keselamatan dan kesehatan kerja.</desc>
  <rect width="640" height="360" rx="24" fill="#141519"/>
  <circle cx="320" cy="166" r="96" fill="#0d0e10" stroke="#5e6ad2" stroke-width="8"/>
  <path d="M320 70a96 96 0 0 1 90 62M410 166a96 96 0 0 1-90 96M320 262a96 96 0 0 1-90-62M230 166a96 96 0 0 1 90-96" fill="none" stroke="#5e6ad2" stroke-width="14" stroke-linecap="round"/>
  <path d="m395 123 18 9-17 12M335 250l-15 14-3-20M245 208l-18-8 17-13M305 82l15-14 3 20" fill="#5e6ad2"/>
  <text x="320" y="174" fill="#f7f8f8" font-family="Arial, sans-serif" font-size="34" font-weight="700" text-anchor="middle">PDCA</text>
  <g fill="#f7f8f8" font-family="Arial, sans-serif" text-anchor="middle">
    <text x="320" y="302" font-size="24" font-weight="700">ISO 45001:2018</text>
    <text x="320" y="330" font-size="16" fill="#8a8f98">SISTEM MANAJEMEN K3</text>
  </g>
</svg>
